# xmcd CD database file
#
# Track frame offsets:
#	150
#	25540
#	52527
#	63941
#	94518
#	109590
#	140465
#	155229
#	181416
#	202985
#	221998
#	239394
#	260114
#	276601
#	297893
#
# Disc length: 4226 seconds
#
# Revision: 0
# Processed by: cddbd v1.5.2PL0 Copyright (c) Steve Scherf et al.
# Submitted via: CDex 1.50Beta6
#
DISCID=de10800f
DTITLE=City Jazz - City Jazz
DYEAR=2007
DGENRE=Jazz
TTITLE0=A Map Of The World
TTITLE1=101 Eastbound
TTITLE2=A Man And A Woman
TTITLE3=The Days Of Wine And Roses
TTITLE4=One Hello
TTITLE5=Maputo
TTITLE6=Summertime
TTITLE7=Playing With Fire
TTITLE8=Surrender
TTITLE9=Song For Maya
TTITLE10=When October Gose
TTITLE11=Everything I Love
TTITLE12=Moon And The Stars
TTITLE13=Baroque Impressions
TTITLE14=for You
EXTD=YEAR: 2007
EXTT0=
EXTT1=
EXTT2=
EXTT3=
EXTT4=
EXTT5=
EXTT6=
EXTT7=
EXTT8=
EXTT9=
EXTT10=
EXTT11=
EXTT12=
EXTT13=
EXTT14=
PLAYORDER=
